<svg version="1.1" xmlns="http://www.w3.org/2000/svg" xmlns:xlink="http://www.w3.org/1999/xlink" width="363" height="572"><defs></defs><g><g transform="translate(-4,-6) scale(1,1)"><rect fill="#ffffff" stroke="none" x="42" y="224" width="288" height="344"></rect></g><g transform="translate(-4,-6) scale(1,1)"><path fill="none" stroke="#000000" d="M 42 224 L 330 224 L 330 568 L 42 568 L 42 224 Z Z" stroke-miterlimit="10"></path></g><g transform="translate(-4,-6) scale(1,1)"><rect fill="#ffffff" stroke="none" x="42" y="224" width="288" height="344"></rect></g><g transform="translate(-4,-6) scale(1,1)"><path fill="none" stroke="#000000" d="M 42 224 L 330 224 L 330 568 L 42 568 L 42 224 Z Z" stroke-miterlimit="10"></path></g><g transform="translate(-4,-6) scale(1,1)"><g><path fill="none" stroke="none"></path><text fill="#000000" stroke="none" font-family="Arial" font-size="13px" font-style="normal" font-weight="bold" text-decoration="none" x="166.5" y="243.5">协议栈</text><path fill="none" stroke="#000000" d="M 205.5 243.5 L 166.5 243.5" stroke-miterlimit="10"></path></g></g><g transform="translate(-4,-6) scale(1,1)"><rect fill="#ffffff" stroke="none" x="114" y="264" width="151.18359375" height="44"></rect></g><g transform="translate(-4,-6) scale(1,1)"><path fill="none" stroke="#000000" d="M 114 264 L 265.18359375 264 L 265.18359375 308 L 114 308 L 114 264 Z Z" stroke-miterlimit="10"></path></g><g transform="translate(-4,-6) scale(1,1)"><rect fill="#ffffff" stroke="none" x="104" y="271" width="20" height="10"></rect></g><g transform="translate(-4,-6) scale(1,1)"><path fill="none" stroke="#000000" d="M 104 271 L 124 271 L 124 281 L 104 281 L 104 271 Z Z" stroke-miterlimit="10"></path></g><g transform="translate(-4,-6) scale(1,1)"><rect fill="#ffffff" stroke="none" x="104" y="291" width="20" height="10"></rect></g><g transform="translate(-4,-6) scale(1,1)"><path fill="none" stroke="#000000" d="M 104 291 L 124 291 L 124 301 L 104 301 L 104 291 Z Z" stroke-miterlimit="10"></path></g><g transform="translate(-4,-6) scale(1,1)"><g><path fill="none" stroke="none"></path><text fill="#000000" stroke="none" font-family="Arial" font-size="13px" font-style="normal" font-weight="bold" text-decoration="none" x="175.091796875" y="283.5">传输层</text><path fill="none" stroke="#000000" d="M 214.091796875 283.5 L 175.091796875 283.5" stroke-miterlimit="10"></path></g></g><g transform="translate(-4,-6) scale(1,1)"><rect fill="#ffffff" stroke="none" x="114" y="344" width="151.18359375" height="44"></rect></g><g transform="translate(-4,-6) scale(1,1)"><path fill="none" stroke="#000000" d="M 114 344 L 265.18359375 344 L 265.18359375 388 L 114 388 L 114 344 Z Z" stroke-miterlimit="10"></path></g><g transform="translate(-4,-6) scale(1,1)"><rect fill="#ffffff" stroke="none" x="104" y="351" width="20" height="10"></rect></g><g transform="translate(-4,-6) scale(1,1)"><path fill="none" stroke="#000000" d="M 104 351 L 124 351 L 124 361 L 104 361 L 104 351 Z Z" stroke-miterlimit="10"></path></g><g transform="translate(-4,-6) scale(1,1)"><rect fill="#ffffff" stroke="none" x="104" y="371" width="20" height="10"></rect></g><g transform="translate(-4,-6) scale(1,1)"><path fill="none" stroke="#000000" d="M 104 371 L 124 371 L 124 381 L 104 381 L 104 371 Z Z" stroke-miterlimit="10"></path></g><g transform="translate(-4,-6) scale(1,1)"><g><path fill="none" stroke="none"></path><text fill="#000000" stroke="none" font-family="Arial" font-size="13px" font-style="normal" font-weight="bold" text-decoration="none" x="175.091796875" y="363.5">网络层</text><path fill="none" stroke="#000000" d="M 214.091796875 363.5 L 175.091796875 363.5" stroke-miterlimit="10"></path></g></g><g transform="translate(-4,-6) scale(1,1)"><rect fill="#ffffff" stroke="none" x="114" y="416" width="151.18359375" height="44"></rect></g><g transform="translate(-4,-6) scale(1,1)"><path fill="none" stroke="#000000" d="M 114 416 L 265.18359375 416 L 265.18359375 460 L 114 460 L 114 416 Z Z" stroke-miterlimit="10"></path></g><g transform="translate(-4,-6) scale(1,1)"><rect fill="#ffffff" stroke="none" x="104" y="423" width="20" height="10"></rect></g><g transform="translate(-4,-6) scale(1,1)"><path fill="none" stroke="#000000" d="M 104 423 L 124 423 L 124 433 L 104 433 L 104 423 Z Z" stroke-miterlimit="10"></path></g><g transform="translate(-4,-6) scale(1,1)"><rect fill="#ffffff" stroke="none" x="104" y="443" width="20" height="10"></rect></g><g transform="translate(-4,-6) scale(1,1)"><path fill="none" stroke="#000000" d="M 104 443 L 124 443 L 124 453 L 104 453 L 104 443 Z Z" stroke-miterlimit="10"></path></g><g transform="translate(-4,-6) scale(1,1)"><g><path fill="none" stroke="none"></path><text fill="#000000" stroke="none" font-family="Arial" font-size="13px" font-style="normal" font-weight="bold" text-decoration="none" x="162.091796875" y="435.5">数据链锯层</text><path fill="none" stroke="#000000" d="M 227.091796875 435.5 L 162.091796875 435.5" stroke-miterlimit="10"></path></g></g><g transform="translate(-4,-6) scale(1,1)"><rect fill="#ffffff" stroke="none" x="114" y="488" width="151.18359375" height="44"></rect></g><g transform="translate(-4,-6) scale(1,1)"><path fill="none" stroke="#000000" d="M 114 488 L 265.18359375 488 L 265.18359375 532 L 114 532 L 114 488 Z Z" stroke-miterlimit="10"></path></g><g transform="translate(-4,-6) scale(1,1)"><rect fill="#ffffff" stroke="none" x="104" y="495" width="20" height="10"></rect></g><g transform="translate(-4,-6) scale(1,1)"><path fill="none" stroke="#000000" d="M 104 495 L 124 495 L 124 505 L 104 505 L 104 495 Z Z" stroke-miterlimit="10"></path></g><g transform="translate(-4,-6) scale(1,1)"><rect fill="#ffffff" stroke="none" x="104" y="515" width="20" height="10"></rect></g><g transform="translate(-4,-6) scale(1,1)"><path fill="none" stroke="#000000" d="M 104 515 L 124 515 L 124 525 L 104 525 L 104 515 Z Z" stroke-miterlimit="10"></path></g><g transform="translate(-4,-6) scale(1,1)"><g><path fill="none" stroke="none"></path><text fill="#000000" stroke="none" font-family="Arial" font-size="13px" font-style="normal" font-weight="bold" text-decoration="none" x="175.091796875" y="507.5">驱动层</text><path fill="none" stroke="#000000" d="M 214.091796875 507.5 L 175.091796875 507.5" stroke-miterlimit="10"></path></g></g><g transform="translate(-4,-6) scale(1,1)"><rect fill="#ffffff" stroke="none" x="42" y="16" width="288" height="56"></rect></g><g transform="translate(-4,-6) scale(1,1)"><path fill="none" stroke="#000000" d="M 42 16 L 330 16 L 330 72 L 42 72 L 42 16 Z Z" stroke-miterlimit="10"></path></g><g transform="translate(-4,-6) scale(1,1)"><rect fill="#ffffff" stroke="none" x="42" y="16" width="288" height="56"></rect></g><g transform="translate(-4,-6) scale(1,1)"><path fill="none" stroke="#000000" d="M 42 16 L 330 16 L 330 72 L 42 72 L 42 16 Z Z" stroke-miterlimit="10"></path></g><g transform="translate(-4,-6) scale(1,1)"><g><path fill="none" stroke="none"></path><text fill="#000000" stroke="none" font-family="Arial" font-size="13px" font-style="normal" font-weight="bold" text-decoration="none" x="160" y="35.5">应用程序</text><path fill="none" stroke="#000000" d="M 212 35.5 L 160 35.5" stroke-miterlimit="10"></path></g></g><g transform="translate(-4,-6) scale(1,1)"><path fill="#ffffff" stroke="none" d="M 96 138 L 260.47265625 138 L 260.47265625 171 L 96 171"></path></g><g transform="translate(-4,-6) scale(1,1)"><path fill="#ffffff" stroke="none" d="M 96 138 L 106 128 L 270.47265625 128 L 260.47265625 138"></path></g><g transform="translate(-4,-6) scale(1,1)"><path fill="#ffffff" stroke="none" d="M 270.47265625 128 L 260.47265625 138 L 260.47265625 171 L 270.47265625 161"></path></g><g transform="translate(-4,-6) scale(1,1)"><path fill="none" stroke="#000000" d="M 96 138 L 260.47265625 138 L 260.47265625 171 L 96 171 L 96 138" stroke-miterlimit="10"></path></g><g transform="translate(-4,-6) scale(1,1)"><path fill="none" stroke="#000000" d="M 96 138 L 106 128 L 270.47265625 128 L 260.47265625 138 L 96 138" stroke-miterlimit="10"></path></g><g transform="translate(-4,-6) scale(1,1)"><path fill="none" stroke="#000000" d="M 270.47265625 128 L 260.47265625 138 L 260.47265625 171 L 270.47265625 161 L 270.47265625 128" stroke-miterlimit="10"></path></g><g transform="translate(-4,-6) scale(1,1)"><g><path fill="none" stroke="none"></path><text fill="#000000" stroke="none" font-family="Arial" font-size="13px" font-style="normal" font-weight="bold" text-decoration="none" x="152.736328125" y="157.5">共享内存</text><path fill="none" stroke="#000000" d="M 204.736328125 157.5 L 152.736328125 157.5" stroke-miterlimit="10"></path></g></g><g transform="translate(-4,-6) scale(1,1)"><path fill="none" stroke="#000000" d="M 72 224 L 72 72" stroke-miterlimit="10"></path></g><g transform="translate(-4,-6) scale(1,1)"><path fill="none" stroke="#000000" d="M 76.20951775601598 82.16267485762415 L 72 72 L 67.79048224398402 82.16267485762415" stroke-miterlimit="10"></path></g><g transform="translate(-4,-6) scale(1,1)"><g><path fill="none" stroke="none"></path><text fill="#000000" stroke="none" font-family="Arial" font-size="13px" font-style="normal" font-weight="normal" text-decoration="none" x="13.5" y="153.5">+信号量</text></g></g><g transform="translate(-4,-6) scale(1,1)"><path fill="none" stroke="#000000" d="M 296 72 L 296 224" stroke-miterlimit="10"></path></g><g transform="translate(-4,-6) scale(1,1)"><path fill="none" stroke="#000000" d="M 291.790482243984 213.83732514237585 L 296 224 L 300.209517756016 213.83732514237585" stroke-miterlimit="10"></path></g><g transform="translate(-4,-6) scale(1,1)"><g><path fill="none" stroke="none"></path><text fill="#000000" stroke="none" font-family="Arial" font-size="13px" font-style="normal" font-weight="normal" text-decoration="none" x="310.5" y="152.5">+信号量</text></g></g><g transform="translate(-4,-6) scale(1,1)"><path fill="#ffffff" stroke="none" d="M 175.7099609375 531.5 C 175.7099609375 525.1487248 180.8586857375 520 187.2099609375 520 C 193.5612361375 520 198.7099609375 525.1487248 198.7099609375 531.5 C 198.7099609375 537.8512752 193.5612361375 543 187.2099609375 543 C 180.8586857375 543 175.7099609375 537.8512752 175.7099609375 531.5 Z"></path></g><g transform="translate(-4,-6) scale(1,1)"><path fill="none" stroke="#000000" d="M 175.7099609375 531.5 C 175.7099609375 525.1487248 180.8586857375 520 187.2099609375 520 C 193.5612361375 520 198.7099609375 525.1487248 198.7099609375 531.5 C 198.7099609375 537.8512752 193.5612361375 543 187.2099609375 543 C 180.8586857375 543 175.7099609375 537.8512752 175.7099609375 531.5 Z" stroke-miterlimit="10"></path></g><g transform="translate(-4,-6) scale(1,1)"><g><path fill="none" stroke="none"></path><text fill="#000000" stroke="none" font-family="Arial" font-size="13px" font-style="normal" font-weight="bold" text-decoration="none" x="166.7099609375" y="562.5">libpcap</text></g></g><g transform="translate(-4,-6) scale(1,1)"><path fill="none" stroke="#000000" d="M 184 309 L 184 343" stroke-miterlimit="10"></path></g><g transform="translate(-4,-6) scale(1,1)"><path fill="none" stroke="#000000" d="M 184 389 L 184 415" stroke-miterlimit="10"></path></g><g transform="translate(-4,-6) scale(1,1)"><path fill="none" stroke="#000000" d="M 184 461 L 184 487" stroke-miterlimit="10"></path></g><g transform="translate(-4,-6) scale(1,1)"><path fill="#ffffff" stroke="none" d="M 226 227.5 C 226 221.1487248 231.1487248 216 237.5 216 C 243.8512752 216 249 221.1487248 249 227.5 C 249 233.8512752 243.8512752 239 237.5 239 C 231.1487248 239 226 233.8512752 226 227.5 Z"></path></g><g transform="translate(-4,-6) scale(1,1)"><path fill="none" stroke="#999999" d="M 226 227.5 C 226 221.1487248 231.1487248 216 237.5 216 C 243.8512752 216 249 221.1487248 249 227.5 C 249 233.8512752 243.8512752 239 237.5 239 C 231.1487248 239 226 233.8512752 226 227.5 Z" stroke-miterlimit="10"></path></g><g transform="translate(-4,-6) scale(1,1)"><g><path fill="none" stroke="none"></path><text fill="#000000" stroke="none" font-family="Arial" font-size="13px" font-style="normal" font-weight="bold" text-decoration="none" x="197.5" y="258.5">协议栈Socket</text></g></g><g transform="translate(-4,-6) scale(1,1)"><path fill="#ffffff" stroke="none" d="M 232.5 67.5 C 232.5 61.1487248 237.6487248 56 244 56 C 250.3512752 56 255.5 61.1487248 255.5 67.5 C 255.5 73.8512752 250.3512752 79 244 79 C 237.6487248 79 232.5 73.8512752 232.5 67.5 Z"></path></g><g transform="translate(-4,-6) scale(1,1)"><path fill="none" stroke="#999999" d="M 232.5 67.5 C 232.5 61.1487248 237.6487248 56 244 56 C 250.3512752 56 255.5 61.1487248 255.5 67.5 C 255.5 73.8512752 250.3512752 79 244 79 C 237.6487248 79 232.5 73.8512752 232.5 67.5 Z" stroke-miterlimit="10"></path></g><g transform="translate(-4,-6) scale(1,1)"><g><path fill="none" stroke="none"></path><text fill="#000000" stroke="none" font-family="Arial" font-size="13px" font-style="normal" font-weight="bold" text-decoration="none" x="197.5" y="98.5">应用程序Socket</text></g></g><g transform="translate(-4,-6) scale(1,1)"><path fill="none" stroke="#999999" d="M 240 216 L 240 172" stroke-miterlimit="10" stroke-dasharray="3"></path></g><g transform="translate(-4,-6) scale(1,1)"><path fill="none" stroke="#999999" d="M 244.209517756016 182.16267485762415 L 240 172 L 235.790482243984 182.16267485762415" stroke-miterlimit="10"></path></g><g transform="translate(-4,-6) scale(1,1)"><path fill="none" stroke="#999999" d="M 240 104 L 240 128" stroke-miterlimit="10" stroke-dasharray="3"></path></g><g transform="translate(-4,-6) scale(1,1)"><path fill="none" stroke="#999999" d="M 235.790482243984 117.83732514237585 L 240 128 L 244.209517756016 117.83732514237585" stroke-miterlimit="10"></path></g></g></svg>